<svg width="395" height="159" viewBox="0 0 395 159" fill="none" xmlns="http://www.w3.org/2000/svg">
<circle cx="35" cy="35" r="35" fill="white"/>
<circle cx="76" cy="76" r="50" fill="white"/>
<circle cx="76" cy="76" r="48.5" stroke="#D9D9D9" stroke-width="3"/>
<path fill-rule="evenodd" clip-rule="evenodd" d="M69 34.676C49.6603 38.206 35 55.141 35 75.5C35 95.859 49.6603 112.794 69 116.324V113.27C51.3272 109.78 38 94.1966 38 75.5C38 56.8034 51.3272 41.2196 69 37.7301V34.676ZM84 113.27C101.673 109.78 115 94.1966 115 75.5C115 56.8034 101.673 41.2196 84 37.7301V34.676C103.34 38.206 118 55.141 118 75.5C118 95.859 103.34 112.794 84 116.324V113.27Z" fill="#D9D9D9"/>
<circle cx="130" cy="124" r="35" fill="white"/>
<g filter="url(#filter0_d_7_13)">
<path d="M184.196 63.702C181.496 63.702 179.138 63.144 177.122 62.028C175.142 60.912 173.594 59.346 172.478 57.33C171.362 55.314 170.804 52.974 170.804 50.31V37.782C170.804 35.082 171.362 32.742 172.478 30.762C173.594 28.746 175.142 27.18 177.122 26.064C179.138 24.948 181.496 24.39 184.196 24.39C186.896 24.39 189.236 24.948 191.216 26.064C193.232 27.18 194.798 28.746 195.914 30.762C197.03 32.742 197.588 35.082 197.588 37.782V50.31C197.588 52.974 197.03 55.314 195.914 57.33C194.798 59.346 193.232 60.912 191.216 62.028C189.236 63.144 186.896 63.702 184.196 63.702ZM184.196 61.002C186.356 61.002 188.228 60.57 189.812 59.706C191.432 58.806 192.674 57.546 193.538 55.926C194.438 54.306 194.888 52.434 194.888 50.31V37.782C194.888 35.622 194.438 33.75 193.538 32.166C192.674 30.546 191.432 29.304 189.812 28.44C188.228 27.54 186.356 27.09 184.196 27.09C182.036 27.09 180.146 27.54 178.526 28.44C176.942 29.304 175.7 30.546 174.8 32.166C173.936 33.75 173.504 35.622 173.504 37.782V50.31C173.504 52.434 173.936 54.306 174.8 55.926C175.7 57.546 176.942 58.806 178.526 59.706C180.146 60.57 182.036 61.002 184.196 61.002ZM218.968 63.972C214.756 63.972 211.462 62.802 209.086 60.462C206.746 58.086 205.576 54.792 205.576 50.58V37.674C205.576 33.462 206.746 30.186 209.086 27.846C211.462 25.47 214.756 24.282 218.968 24.282C221.02 24.282 222.964 24.732 224.8 25.632C226.636 26.532 228.184 27.792 229.444 29.412C229.696 29.7 229.804 30.024 229.768 30.384C229.732 30.744 229.57 31.05 229.282 31.302C228.958 31.518 228.598 31.608 228.202 31.572C227.842 31.5 227.554 31.338 227.338 31.086C226.33 29.79 225.088 28.782 223.612 28.062C222.136 27.342 220.588 26.982 218.968 26.982C215.62 26.982 212.992 27.936 211.084 29.844C209.212 31.716 208.276 34.326 208.276 37.674V50.58C208.276 53.928 209.212 56.556 211.084 58.464C212.992 60.336 215.62 61.272 218.968 61.272C220.588 61.272 222.136 60.93 223.612 60.246C225.088 59.526 226.33 58.518 227.338 57.222C227.554 56.934 227.842 56.772 228.202 56.736C228.598 56.664 228.958 56.754 229.282 57.006C229.57 57.222 229.732 57.528 229.768 57.924C229.804 58.284 229.696 58.608 229.444 58.896C228.184 60.516 226.636 61.776 224.8 62.676C222.964 63.54 221.02 63.972 218.968 63.972ZM248.245 63.756C247.849 63.756 247.507 63.63 247.219 63.378C246.967 63.126 246.841 62.82 246.841 62.46V27.9H235.123C234.763 27.9 234.457 27.774 234.205 27.522C233.953 27.234 233.827 26.91 233.827 26.55C233.827 26.19 233.953 25.884 234.205 25.632C234.457 25.344 234.763 25.2 235.123 25.2H261.259C261.619 25.2 261.925 25.344 262.177 25.632C262.465 25.884 262.609 26.19 262.609 26.55C262.609 26.91 262.465 27.234 262.177 27.522C261.925 27.774 261.619 27.9 261.259 27.9H249.541V62.46C249.541 62.82 249.415 63.126 249.163 63.378C248.911 63.63 248.605 63.756 248.245 63.756ZM263.029 63.432C262.669 63.324 262.417 63.108 262.273 62.784C262.129 62.424 262.129 62.064 262.273 61.704L275.827 25.146C276.079 24.57 276.511 24.282 277.123 24.282C277.735 24.282 278.167 24.57 278.419 25.146L292.027 61.704C292.171 62.064 292.153 62.424 291.973 62.784C291.829 63.108 291.577 63.324 291.217 63.432C290.893 63.576 290.551 63.558 290.191 63.378C289.867 63.234 289.633 62.982 289.489 62.622L277.123 29.52L269.617 49.554H279.823C280.183 49.554 280.489 49.698 280.741 49.986C280.993 50.238 281.119 50.562 281.119 50.958C281.119 51.318 280.993 51.624 280.741 51.876C280.489 52.128 280.183 52.254 279.823 52.254H268.591L264.757 62.622C264.613 62.982 264.379 63.234 264.055 63.378C263.731 63.558 263.389 63.576 263.029 63.432ZM306.298 63.702C305.686 63.702 305.272 63.414 305.056 62.838L291.772 26.172C291.628 25.812 291.628 25.47 291.772 25.146C291.916 24.822 292.168 24.588 292.528 24.444C292.888 24.3 293.23 24.318 293.554 24.498C293.878 24.642 294.112 24.894 294.256 25.254L306.298 58.41L318.394 25.254C318.538 24.894 318.772 24.642 319.096 24.498C319.42 24.318 319.762 24.3 320.122 24.444C320.482 24.588 320.734 24.822 320.878 25.146C321.058 25.47 321.076 25.812 320.932 26.172L307.594 62.838C307.378 63.414 306.946 63.702 306.298 63.702ZM330.388 63.702C330.028 63.702 329.704 63.576 329.416 63.324C329.164 63.072 329.038 62.766 329.038 62.406V25.794C329.038 25.398 329.164 25.074 329.416 24.822C329.704 24.534 330.028 24.39 330.388 24.39C330.784 24.39 331.108 24.534 331.36 24.822C331.612 25.074 331.738 25.398 331.738 25.794V62.406C331.738 62.766 331.612 63.072 331.36 63.324C331.108 63.576 330.784 63.702 330.388 63.702ZM340.662 63.432C340.302 63.324 340.05 63.108 339.906 62.784C339.762 62.424 339.762 62.064 339.906 61.704L353.46 25.146C353.712 24.57 354.144 24.282 354.756 24.282C355.368 24.282 355.8 24.57 356.052 25.146L369.66 61.704C369.804 62.064 369.786 62.424 369.606 62.784C369.462 63.108 369.21 63.324 368.85 63.432C368.526 63.576 368.184 63.558 367.824 63.378C367.5 63.234 367.266 62.982 367.122 62.622L354.756 29.52L347.25 49.554H357.456C357.816 49.554 358.122 49.698 358.374 49.986C358.626 50.238 358.752 50.562 358.752 50.958C358.752 51.318 358.626 51.624 358.374 51.876C358.122 52.128 357.816 52.254 357.456 52.254H346.224L342.39 62.622C342.246 62.982 342.012 63.234 341.688 63.378C341.364 63.558 341.022 63.576 340.662 63.432Z" fill="white"/>
</g>
<g filter="url(#filter1_d_7_13)">
<path d="M192.703 129.918C188.725 129.918 185.614 128.813 183.37 126.603C181.16 124.359 180.055 121.248 180.055 117.27V105.081C180.055 101.103 181.16 98.009 183.37 95.799C185.614 93.555 188.725 92.433 192.703 92.433C194.641 92.433 196.477 92.858 198.211 93.708C199.945 94.558 201.407 95.748 202.597 97.278C202.835 97.55 202.937 97.856 202.903 98.196C202.869 98.536 202.716 98.825 202.444 99.063C202.138 99.267 201.798 99.352 201.424 99.318C201.084 99.25 200.812 99.097 200.608 98.859C199.656 97.635 198.483 96.683 197.089 96.003C195.695 95.323 194.233 94.983 192.703 94.983C189.541 94.983 187.059 95.884 185.257 97.686C183.489 99.454 182.605 101.919 182.605 105.081V117.27C182.605 120.432 183.489 122.914 185.257 124.716C187.059 126.484 189.541 127.368 192.703 127.368C194.233 127.368 195.695 127.045 197.089 126.399C198.483 125.719 199.656 124.767 200.608 123.543C200.812 123.271 201.084 123.118 201.424 123.084C201.798 123.016 202.138 123.101 202.444 123.339C202.716 123.543 202.869 123.832 202.903 124.206C202.937 124.546 202.835 124.852 202.597 125.124C201.407 126.654 199.945 127.844 198.211 128.694C196.477 129.51 194.641 129.918 192.703 129.918ZM208.28 129.408C207.94 129.306 207.702 129.102 207.566 128.796C207.43 128.456 207.43 128.116 207.566 127.776L220.367 93.249C220.605 92.705 221.013 92.433 221.591 92.433C222.169 92.433 222.577 92.705 222.815 93.249L235.667 127.776C235.803 128.116 235.786 128.456 235.616 128.796C235.48 129.102 235.242 129.306 234.902 129.408C234.596 129.544 234.273 129.527 233.933 129.357C233.627 129.221 233.406 128.983 233.27 128.643L221.591 97.38L214.502 116.301H224.141C224.481 116.301 224.77 116.437 225.008 116.709C225.246 116.947 225.365 117.253 225.365 117.627C225.365 117.967 225.246 118.256 225.008 118.494C224.77 118.732 224.481 118.851 224.141 118.851H213.533L209.912 128.643C209.776 128.983 209.555 129.221 209.249 129.357C208.943 129.527 208.62 129.544 208.28 129.408ZM242.75 129.714C242.41 129.714 242.104 129.595 241.832 129.357C241.594 129.119 241.475 128.83 241.475 128.49V94.575C241.475 94.235 241.594 93.946 241.832 93.708C242.104 93.436 242.41 93.3 242.75 93.3H255.296C257.2 93.3 258.917 93.776 260.447 94.728C262.011 95.646 263.252 96.887 264.17 98.451C265.122 99.981 265.598 101.681 265.598 103.551C265.598 105.149 265.241 106.645 264.527 108.039C263.847 109.433 262.912 110.623 261.722 111.609C260.532 112.561 259.172 113.207 257.642 113.547L265.547 127.878C265.717 128.218 265.751 128.558 265.649 128.898C265.547 129.204 265.36 129.442 265.088 129.612C264.748 129.782 264.408 129.816 264.068 129.714C263.762 129.612 263.524 129.408 263.354 129.102L254.939 113.853H247.493C247.153 113.853 246.847 113.734 246.575 113.496C246.337 113.224 246.218 112.918 246.218 112.578C246.218 112.204 246.337 111.898 246.575 111.66C246.847 111.422 247.153 111.303 247.493 111.303H255.296C256.724 111.303 258.016 110.963 259.172 110.283C260.362 109.569 261.297 108.634 261.977 107.478C262.691 106.288 263.048 104.979 263.048 103.551C263.048 102.123 262.691 100.831 261.977 99.675C261.297 98.519 260.362 97.601 259.172 96.921C258.016 96.207 256.724 95.85 255.296 95.85H244.025V128.49C244.025 128.83 243.906 129.119 243.668 129.357C243.43 129.595 243.124 129.714 242.75 129.714ZM273.529 129C273.189 129 272.883 128.881 272.611 128.643C272.373 128.371 272.254 128.065 272.254 127.725V94.575C272.254 94.201 272.373 93.895 272.611 93.657C272.883 93.419 273.189 93.3 273.529 93.3H284.851C287.741 93.3 290.07 94.133 291.838 95.799C293.64 97.465 294.541 99.658 294.541 102.378C294.541 103.874 294.133 105.387 293.317 106.917C292.535 108.447 291.192 109.688 289.288 110.64C293.232 112.068 295.204 114.992 295.204 119.412C295.204 122.37 294.303 124.716 292.501 126.45C290.699 128.15 288.234 129 285.106 129H273.529ZM274.804 126.501H285.106C287.554 126.501 289.424 125.889 290.716 124.665C292.008 123.441 292.654 121.69 292.654 119.412C292.654 118.528 292.535 117.661 292.297 116.811C292.093 115.961 291.634 115.179 290.92 114.465C290.24 113.717 289.203 113.139 287.809 112.731C286.449 112.289 284.613 112.068 282.301 112.068H278.884C278.51 112.068 278.204 111.949 277.966 111.711C277.728 111.439 277.609 111.133 277.609 110.793C277.609 110.419 277.728 110.113 277.966 109.875C278.204 109.637 278.51 109.518 278.884 109.518H282.301C284.681 109.518 286.568 109.161 287.962 108.447C289.39 107.733 290.41 106.832 291.022 105.744C291.668 104.656 291.991 103.534 291.991 102.378C291.991 100.372 291.345 98.791 290.053 97.635C288.761 96.445 287.027 95.85 284.851 95.85H274.804V126.501ZM314.127 129.663C311.577 129.663 309.35 129.136 307.446 128.082C305.576 127.028 304.114 125.549 303.06 123.645C302.006 121.741 301.479 119.531 301.479 117.015V105.183C301.479 102.633 302.006 100.423 303.06 98.553C304.114 96.649 305.576 95.17 307.446 94.116C309.35 93.062 311.577 92.535 314.127 92.535C316.677 92.535 318.887 93.062 320.757 94.116C322.661 95.17 324.14 96.649 325.194 98.553C326.248 100.423 326.775 102.633 326.775 105.183V117.015C326.775 119.531 326.248 121.741 325.194 123.645C324.14 125.549 322.661 127.028 320.757 128.082C318.887 129.136 316.677 129.663 314.127 129.663ZM314.127 127.113C316.167 127.113 317.935 126.705 319.431 125.889C320.961 125.039 322.134 123.849 322.95 122.319C323.8 120.789 324.225 119.021 324.225 117.015V105.183C324.225 103.143 323.8 101.375 322.95 99.879C322.134 98.349 320.961 97.176 319.431 96.36C317.935 95.51 316.167 95.085 314.127 95.085C312.087 95.085 310.302 95.51 308.772 96.36C307.276 97.176 306.103 98.349 305.253 99.879C304.437 101.375 304.029 103.143 304.029 105.183V117.015C304.029 119.021 304.437 120.789 305.253 122.319C306.103 123.849 307.276 125.039 308.772 125.889C310.302 126.705 312.087 127.113 314.127 127.113ZM335.237 129.663C334.897 129.663 334.591 129.544 334.319 129.306C334.081 129.068 333.962 128.779 333.962 128.439V93.81C333.962 93.164 334.268 92.756 334.88 92.586C335.492 92.416 335.985 92.603 336.359 93.147C339.521 98.179 342.224 102.48 344.468 106.05C346.746 109.62 348.616 112.578 350.078 114.924C351.574 117.27 352.747 119.123 353.597 120.483C354.447 121.809 355.042 122.744 355.382 123.288C355.722 123.832 355.892 124.104 355.892 124.104V93.81C355.892 93.47 356.028 93.181 356.3 92.943C356.572 92.671 356.878 92.535 357.218 92.535C357.558 92.535 357.847 92.671 358.085 92.943C358.323 93.181 358.442 93.47 358.442 93.81V128.439C358.442 129.051 358.153 129.442 357.575 129.612C356.963 129.782 356.47 129.612 356.096 129.102C352.934 124.07 350.231 119.769 347.987 116.199C345.743 112.629 343.873 109.671 342.377 107.325C340.881 104.979 339.708 103.143 338.858 101.817C338.008 100.457 337.396 99.505 337.022 98.961C336.682 98.417 336.512 98.145 336.512 98.145V128.439C336.512 128.779 336.393 129.068 336.155 129.306C335.917 129.544 335.611 129.663 335.237 129.663Z" fill="white"/>
</g>
<path d="M76 43C57.7747 43 43 57.7747 43 76C43 94.2253 57.7747 109 76 109C94.2253 109 109 94.2253 109 76C109 57.7747 94.2253 43 76 43ZM94.5336 74.9688C94.3913 69.2123 93.0754 63.7508 90.8077 58.8122C93.5426 57.7582 96.1383 56.4228 98.5576 54.8377C103.532 60.1383 106.657 67.188 106.913 74.9688H94.5336ZM77.3747 106.902C77.2612 106.908 77.1457 106.908 77.0312 106.912V94.5986C80.4591 94.6883 83.7828 95.1978 86.9364 96.1145C84.4398 100.277 81.1862 103.93 77.3747 106.902ZM88.9412 96.7704C91.2955 97.5964 93.5426 98.6442 95.668 99.8827C91.5523 103.276 86.5425 105.62 81.0469 106.522C84.1489 103.7 86.8116 100.412 88.9412 96.7704ZM65.0626 96.1145C68.2172 95.1967 71.5409 94.6883 74.9688 94.5986V106.911C74.8543 106.907 74.7388 106.907 74.6253 106.901C70.8128 103.93 67.5602 100.277 65.0626 96.1145ZM70.952 106.521C65.4565 105.62 60.4467 103.276 56.331 99.8817C58.4574 98.6442 60.7035 97.5954 63.0578 96.7704C65.1873 100.412 67.8511 103.7 70.952 106.521ZM45.0883 74.9688C45.344 67.188 48.4677 60.1383 53.4435 54.8377C55.8628 56.4217 58.4574 57.7572 61.1933 58.8122C58.9246 63.7508 57.6087 69.2123 57.4664 74.9688H45.0883ZM87.9316 57.6396C84.482 58.742 80.8221 59.3618 77.0312 59.4608V45.0883C77.1457 45.0924 77.2612 45.0924 77.3747 45.0976C81.7142 48.4801 85.3297 52.7484 87.9316 57.6396ZM81.048 45.4791C87.1777 46.4856 92.699 49.2906 97.054 53.3393C94.81 54.7738 92.4175 55.9896 89.893 56.9477C87.6304 52.6174 84.6305 48.7358 81.048 45.4791ZM74.9688 45.0883V59.4608C71.1768 59.3618 67.5169 58.7431 64.0684 57.6396C66.6703 52.7484 70.2858 48.4801 74.6253 45.0976C74.7388 45.0924 74.8543 45.0924 74.9688 45.0883ZM62.108 56.9477C59.5835 55.9896 57.19 54.7738 54.947 53.3393C59.302 49.2906 64.8223 46.4856 70.9531 45.4791C67.3695 48.7358 64.3696 52.6174 62.108 56.9477ZM63.1424 59.5093C66.8776 60.7354 70.8479 61.4408 74.9688 61.5429V74.9688H59.532C59.6753 69.4557 60.9468 64.2273 63.1424 59.5093ZM74.9688 77.0312V92.5371C71.1696 92.632 67.4973 93.2229 64.022 94.2789C61.2861 89.1092 59.6939 83.2487 59.532 77.0312H74.9688ZM77.0312 92.5371V77.0312H92.468C92.3072 83.2487 90.7139 89.1093 87.978 94.2799C84.5027 93.2229 80.8304 92.632 77.0312 92.5371ZM77.0312 74.9688V61.5419C81.1521 61.4398 85.1224 60.7354 88.8576 59.5082C91.0532 64.2262 92.3247 69.4557 92.468 74.9677L77.0312 74.9688ZM45.0883 77.0312H57.4664C57.6252 83.4797 59.2607 89.5568 62.0523 94.943C59.4783 95.8701 57.0291 97.0509 54.7212 98.4452C49.0091 93.029 45.3657 85.4586 45.0883 77.0312ZM97.2788 98.4462C94.9709 97.0509 92.5217 95.8712 89.9477 94.9441C92.7393 89.5568 94.3748 83.4807 94.5336 77.0323H106.912C106.634 85.4586 102.991 93.029 97.2788 98.4462Z" fill="#414141"/>
<defs>
<filter id="filter0_d_7_13" x="168.804" y="22.228" width="207.072" height="47.744" filterUnits="userSpaceOnUse" color-interpolation-filters="sRGB">
<feFlood flood-opacity="0" result="BackgroundImageFix"/>
<feColorMatrix in="SourceAlpha" type="matrix" values="0 0 0 0 0 0 0 0 0 0 0 0 0 0 0 0 0 0 127 0" result="hardAlpha"/>
<feOffset dx="2" dy="2"/>
<feGaussianBlur stdDeviation="2"/>
<feComposite in2="hardAlpha" operator="out"/>
<feColorMatrix type="matrix" values="0 0 0 0 0 0 0 0 0 0 0 0 0 0 0 0 0 0 0.41 0"/>
<feBlend mode="normal" in2="BackgroundImageFix" result="effect1_dropShadow_7_13"/>
<feBlend mode="normal" in="SourceGraphic" in2="effect1_dropShadow_7_13" result="shape"/>
</filter>
<filter id="filter1_d_7_13" x="178.055" y="90.331" width="186.387" height="45.587" filterUnits="userSpaceOnUse" color-interpolation-filters="sRGB">
<feFlood flood-opacity="0" result="BackgroundImageFix"/>
<feColorMatrix in="SourceAlpha" type="matrix" values="0 0 0 0 0 0 0 0 0 0 0 0 0 0 0 0 0 0 127 0" result="hardAlpha"/>
<feOffset dx="2" dy="2"/>
<feGaussianBlur stdDeviation="2"/>
<feComposite in2="hardAlpha" operator="out"/>
<feColorMatrix type="matrix" values="0 0 0 0 0 0 0 0 0 0 0 0 0 0 0 0 0 0 0.41 0"/>
<feBlend mode="normal" in2="BackgroundImageFix" result="effect1_dropShadow_7_13"/>
<feBlend mode="normal" in="SourceGraphic" in2="effect1_dropShadow_7_13" result="shape"/>
</filter>
</defs>
</svg>
